<svg xmlns:dc="http://purl.org/dc/elements/1.1/" xmlns:cc="http://creativecommons.org/ns#" xmlns:rdf="http://www.w3.org/1999/02/22-rdf-syntax-ns#" xmlns:svg="http://www.w3.org/2000/svg" xmlns="http://www.w3.org/2000/svg" xmlns:sodipodi="http://sodipodi.sourceforge.net/DTD/sodipodi-0.dtd" xmlns:inkscape="http://www.inkscape.org/namespaces/inkscape" viewBox="0 0 8.4666665 8.583333625" version="1.1" x="0px" y="0px">
	<g fill="white" transform="translate(0,-288.53332)">
		<path fill="white" style="font-style:normal;font-variant:normal;font-weight:normal;font-stretch:normal;font-size:medium;line-height:normal;font-family:sans-serif;font-variant-ligatures:normal;font-variant-position:normal;font-variant-caps:normal;font-variant-numeric:normal;font-variant-alternates:normal;font-feature-settings:normal;text-indent:0;text-align:start;text-decoration:none;text-decoration-line:none;text-decoration-style:solid;text-decoration-color:white;letter-spacing:normal;word-spacing:normal;text-transform:none;writing-mode:lr-tb;direction:ltr;text-orientation:mixed;dominant-baseline:auto;baseline-shift:baseline;text-anchor:start;white-space:normal;shape-padding:0;clip-rule:nonzero;display:inline;overflow:visible;visibility:visible;opacity:1;isolation:auto;mix-blend-mode:normal;color-interpolation:sRGB;color-interpolation-filters:linearRGB;solid-color:white;solid-opacity:1;vector-effect:none;fill:#white;fill-opacity:1;fill-rule:nonzero;stroke:none;stroke-width:0.5291667;stroke-linecap:round;stroke-linejoin:miter;stroke-miterlimit:4;stroke-dasharray:none;stroke-dashoffset:0;stroke-opacity:1;color-rendering:auto;image-rendering:auto;shape-rendering:auto;text-rendering:auto;enable-background:accumulate" d="m 2.1377111,290.63136 c -0.5561348,-0.008 -1.0998845,0.14232 -1.5306558,0.57309 a 0.26460982,0.26460982 0 1 0 0.3731038,0.37311 c 0.3675861,-0.36759 0.8021026,-0.45573 1.3472046,-0.40618 0.5451019,0.0496 1.1777056,0.25528 1.8226278,0.47026 0.6449226,0.21497 1.3021635,0.43815 1.9394151,0.49609 0.6372543,0.0579 1.2791572,-0.0679 1.7714701,-0.56017 a 0.26460982,0.26460982 0 1 0 -0.3751712,-0.37311 c -0.3675857,0.36758 -0.8026189,0.45574 -1.3477214,0.40618 -0.5451025,-0.0496 -1.1751231,-0.2558 -1.8200449,-0.47077 -0.6449224,-0.21498 -1.3042279,-0.43817 -1.9414829,-0.4961 -0.079657,-0.007 -0.1592974,-0.0113 -0.2387452,-0.0124 z m 0,2.75177 c -0.5561354,-0.008 -1.0998845,0.14232 -1.5306558,0.57309 a 0.26460982,0.26460982 0 1 0 0.3731038,0.37311 c 0.3675861,-0.36759 0.8021026,-0.45573 1.3472046,-0.40618 0.5451019,0.0495 1.1777056,0.2558 1.8226278,0.47077 0.6449226,0.21498 1.3021635,0.43816 1.9394151,0.4961 0.6372543,0.0579 1.2791572,-0.0684 1.7714701,-0.56069 a 0.26460982,0.26460982 0 1 0 -0.3751712,-0.37311 c -0.3675857,0.36758 -0.8026189,0.45574 -1.3477214,0.40618 -0.5451025,-0.0496 -1.1751231,-0.25528 -1.8200449,-0.47025 -0.6449224,-0.21498 -1.3042271,-0.43817 -1.9414829,-0.4961 -0.079657,-0.007 -0.1592971,-0.0118 -0.2387452,-0.0129 z" />
	</g>
</svg>
